HIERARCHY
ROOT Hips
{
	OFFSET 0.000000 0.000000 0.000000
	CHANNELS 6 Xposition Yposition Zposition Zrotation Yrotation Xrotation 
	JOINT LowerBack
	{
		OFFSET 0.000000 0.000000 0.000000
		CHANNELS 3 Zrotation Yrotation Xrotation
		JOINT Spine
		{
			OFFSET 0.028270 2.035590 -0.193380
			CHANNELS 3 Zrotation Yrotation Xrotation
			JOINT Spine1
			{
				OFFSET 0.056720 2.048850 -0.042750
				CHANNELS 3 Zrotation Yrotation Xrotation
				JOINT Neck
				{
					OFFSET 0.000000 0.000000 0.000000
					CHANNELS 3 Zrotation Yrotation Xrotation
					JOINT Neck1
					{
						OFFSET -0.054170 1.746240 0.172020
						CHANNELS 3 Zrotation Yrotation Xrotation
						JOINT Head
						{
							OFFSET 0.104070 1.761360 -0.123970
							CHANNELS 3 Zrotation Yrotation Xrotation
							End Site
							{
								OFFSET 0.000000 0.000000 0.000000
							}
						}
					}
				}
				JOINT LeftShoulder
				{
					OFFSET 0.000000 0.000000 0.000000
					CHANNELS 3 Zrotation Yrotation Xrotation
					JOINT LeftArm
					{
						OFFSET 3.362410 1.200890 -0.311210
						CHANNELS 3 Zrotation Yrotation Xrotation
						JOINT LeftForeArm
						{
							OFFSET 4.983000 -0.000000 -0.000000
							CHANNELS 3 Zrotation Yrotation Xrotation
							JOINT LeftHand
							{
								OFFSET 3.483560 -0.000000 -0.000000
								CHANNELS 3 Zrotation Yrotation Xrotation
								JOINT LeftFingerBase
								{
									OFFSET 0.000000 0.000000 0.000000
									CHANNELS 3 Zrotation Yrotation Xrotation
									JOINT LeftHandIndex1
									{
										OFFSET 0.715260 -0.000000 -0.000000
										CHANNELS 3 Zrotation Yrotation Xrotation
										End Site
										{
											OFFSET 0.000000 0.000000 0.000000
										}
									}
								}
								JOINT LThumb
								{
									OFFSET 0.000000 0.000000 0.000000
									CHANNELS 3 Zrotation Yrotation Xrotation
									End Site
									{
										OFFSET 0.000000 0.000000 0.000000
									}
								}
							}
						}
					}
				}
				JOINT RightShoulder
				{
					OFFSET 0.000000 0.000000 0.000000
					CHANNELS 3 Zrotation Yrotation Xrotation
					JOINT RightArm
					{
						OFFSET -3.136600 1.374050 -0.404650
						CHANNELS 3 Zrotation Yrotation Xrotation
						JOINT RightForeArm
						{
							OFFSET -5.241900 -0.000000 -0.000000
							CHANNELS 3 Zrotation Yrotation Xrotation
							JOINT RightHand
							{
								OFFSET -3.444170 -0.000000 -0.000000
								CHANNELS 3 Zrotation Yrotation Xrotation
								JOINT RightFingerBase
								{
									OFFSET 0.000000 0.000000 0.000000
									CHANNELS 3 Zrotation Yrotation Xrotation
									JOINT RightHandIndex1
									{
										OFFSET -0.622530 -0.000000 -0.000000
										CHANNELS 3 Zrotation Yrotation Xrotation
										End Site
										{
											OFFSET 0.000000 0.000000 0.000000
										}
									}
								}
								JOINT RThumb
								{
									OFFSET 0.000000 0.000000 0.000000
									CHANNELS 3 Zrotation Yrotation Xrotation
									End Site
									{
										OFFSET 0.000000 0.000000 0.000000
									}
								}
							}
						}
					}
				}
			}
		}
	}
}
}
MOTION
Frames: 12
Frame Time: 0.008333
-21.092780 16.488299 -0.421303 -156.820224 88.283538 -141.952000 -2.500137 4.525608 -8.827947 -2.060292 4.362235 -4.557258 -7.906138 4.332179 1.737001 12.607103 -4.817199 -9.107233 -3.493056 -0.272865 -0.390343 0.000000 0.000000 0.000000 0.324103 30.262534 1.452695 -50.868989 20.701099 -16.241465 -4.472938 -20.397574 0.006113 5.573879 1.239118 0.067744 -0.195243 -0.099412 -0.000000 0.000000 0.000000 0.000000 0.000000 0.000000 0.000000 18.078923 5.740139 -1.427206 72.478020 19.487937 34.832361 1.029449 74.760485 0.017687 1.935864 6.836247 0.125826 -0.009089 -0.451879 -0.000000 0.000000 0.000000 0.000000 0.000000 0.000000 0.000000 
-20.889332 16.510781 -0.415351 170.834061 88.938824 -174.403414 -3.465382 4.513986 -9.026429 -2.295653 4.467342 -4.610729 -7.954381 4.435073 1.698297 12.788117 -4.908338 -9.085786 -3.512399 -0.274659 -0.383940 0.000000 0.000000 0.000000 0.355996 30.226507 1.378113 -50.293302 20.315878 -16.077914 -4.500704 -20.374757 0.005832 5.554759 1.282861 0.069744 -0.196964 -0.098777 -0.000000 0.000000 0.000000 0.000000 0.000000 0.000000 0.000000 18.456507 5.699080 -1.404790 73.037946 18.806755 35.065913 1.073441 73.902835 0.018926 2.107131 6.831101 0.136658 -0.009742 -0.449428 -0.000000 0.000000 0.000000 0.000000 0.000000 0.000000 0.000000 
-20.687064 16.534764 -0.408395 147.976387 89.313603 162.607036 -3.826243 4.559216 -9.215421 -2.434411 4.572820 -4.656944 -8.029005 4.553218 1.659779 12.967706 -5.014536 -9.071147 -3.536623 -0.277309 -0.379686 0.000000 0.000000 0.000000 0.367822 30.181886 1.308315 -49.758344 19.877858 -15.918617 -4.517310 -20.355027 0.005585 5.549012 1.323861 0.071645 -0.197412 -0.097885 -0.000000 0.000000 0.000000 0.000000 0.000000 0.000000 0.000000 18.850319 5.659941 -1.381181 73.551771 18.127722 35.239879 1.117469 72.968465 0.019993 2.249028 6.817901 0.145279 -0.009277 -0.445928 0.000000 0.000000 0.000000 0.000000 0.000000 0.000000 0.000000 
-20.487427 16.560108 -0.400810 135.746351 89.161054 150.251841 -4.195006 4.476365 -9.366223 -2.538350 4.541579 -4.691009 -8.084195 4.527842 1.630563 13.140787 -5.122998 -9.061417 -3.562809 -0.279940 -0.378516 0.000000 0.000000 0.000000 0.382189 30.050371 1.260742 -49.268786 19.358010 -15.762003 -4.535827 -20.326306 0.005283 5.552212 1.366041 0.073746 -0.197614 -0.096210 -0.000000 0.000000 0.000000 0.000000 0.000000 0.000000 0.000000 19.246519 5.528751 -1.372387 74.025174 17.440686 35.322564 1.161544 71.961252 0.020623 2.355066 6.803198 0.151670 -0.009002 -0.440932 0.000000 0.000000 0.000000 0.000000 0.000000 0.000000 0.000000 
-20.291358 16.586580 -0.392982 129.131056 88.795386 143.499852 -4.667778 4.340257 -9.469292 -2.646742 4.465105 -4.715264 -8.122664 4.452848 1.605132 13.301492 -5.227537 -9.056000 -3.589451 -0.282323 -0.379576 0.000000 0.000000 0.000000 0.383029 29.882594 1.221613 -48.828188 18.754865 -15.613014 -4.554601 -20.287583 0.004930 5.560309 1.412497 0.076148 -0.197618 -0.094064 -0.000000 0.000000 0.000000 0.000000 0.000000 0.000000 0.000000 19.634329 5.365531 -1.366965 74.467779 16.765838 35.314211 1.206729 70.868580 0.020932 2.422462 6.792642 0.155452 -0.008388 -0.435086 0.000000 0.000000 0.000000 0.000000 0.000000 0.000000 0.000000 
-20.099649 16.613968 -0.385810 125.570865 88.345360 139.787861 -5.176647 4.185443 -9.522820 -2.754197 4.373094 -4.729332 -8.147418 4.360414 1.582034 13.437581 -5.326659 -9.054772 -3.615202 -0.284384 -0.382351 0.000000 0.000000 0.000000 0.350537 29.697327 1.185636 -48.441873 18.068765 -15.466097 -4.572298 -20.240467 0.004521 5.567681 1.466681 0.078848 -0.197350 -0.091589 -0.000000 0.000000 0.000000 0.000000 0.000000 0.000000 0.000000 19.992052 5.189313 -1.362879 74.883349 16.111880 35.215304 1.253180 69.685237 0.020942 2.447960 6.792381 0.156832 -0.007189 -0.428444 0.000000 0.000000 0.000000 0.000000 0.000000 0.000000 0.000000 
-19.913196 16.642024 -0.379921 123.690309 87.862083 137.736669 -5.677740 4.024309 -9.522916 -2.854216 4.273539 -4.732106 -8.159527 4.259608 1.560677 13.540235 -5.417065 -9.056527 -3.639292 -0.286088 -0.386291 0.000000 0.000000 0.000000 0.275736 29.499765 1.151586 -48.115487 17.298338 -15.316881 -4.588717 -20.183523 0.004050 5.570351 1.530764 0.081947 -0.196784 -0.088816 -0.000000 0.000000 0.000000 0.000000 0.000000 0.000000 0.000000 20.303906 5.007311 -1.360371 75.273799 15.482156 35.020822 1.300675 68.410222 0.020674 2.431082 6.806066 0.155810 -0.005383 -0.420954 0.000000 0.000000 0.000000 0.000000 0.000000 0.000000 0.000000 
-19.732490 16.670517 -0.375482 122.704112 87.363940 136.555087 -6.154820 3.861825 -9.464362 -2.944394 4.169293 -4.722584 -8.159948 4.153776 1.540225 13.605841 -5.493442 -9.058795 -3.661634 -0.287454 -0.390690 0.000000 0.000000 0.000000 0.160504 29.290129 1.119959 -47.854247 16.443329 -15.162820 -4.604135 -20.113434 0.003511 5.565215 1.604262 0.085346 -0.195925 -0.085728 -0.000000 0.000000 0.000000 0.000000 0.000000 0.000000 0.000000 20.563048 4.825880 -1.359708 75.641783 14.875947 34.721642 1.348797 67.045720 0.020149 2.376097 6.834124 0.152586 -0.003097 -0.412591 0.000000 0.000000 0.000000 0.000000 0.000000 0.000000 0.000000 
-19.557660 16.699268 -0.372955 122.303049 86.867256 135.932761 -6.589750 3.702116 -9.347956 -3.021426 4.062017 -4.700816 -8.149793 4.044779 1.520148 13.631541 -5.553535 -9.059638 -3.682212 -0.288517 -0.394875 0.000000 0.000000 0.000000 0.000484 29.067463 1.090049 -47.657594 15.510957 -14.994526 -4.618640 -20.033887 0.002916 5.550553 1.686507 0.089144 -0.194794 -0.082395 -0.000000 0.000000 0.000000 0.000000 0.000000 0.000000 0.000000 20.764432 4.647736 -1.360295 75.986261 14.293342 34.314906 1.397329 65.595018 0.019403 2.286526 6.874716 0.147257 -0.000410 -0.403291 0.000000 0.000000 0.000000 0.000000 0.000000 0.000000 0.000000 
-19.388833 16.728157 -0.373039 122.402948 86.392913 135.789835 -6.957077 3.548956 -9.182330 -3.080459 3.952462 -4.668153 -8.130659 3.933467 1.500542 13.615286 -5.596820 -9.057555 -3.701091 -0.289333 -0.398154 0.000000 0.000000 0.000000 -0.212496 28.832375 1.060211 -47.520100 14.512910 -14.798145 -4.632068 -19.951943 0.002290 5.527235 1.773976 0.092942 -0.193420 -0.078937 -0.000000 0.000000 0.000000 0.000000 0.000000 0.000000 0.000000 20.904328 4.473729 -1.361405 76.303879 13.733684 33.803413 1.446182 64.063252 0.018472 2.165613 6.924818 0.140125 0.002624 -0.392981 -0.000000 0.000000 0.000000 0.000000 0.000000 0.000000 0.000000 
-19.225739 16.757061 -0.375569 122.783193 85.944282 135.904806 -7.258628 3.402987 -8.971910 -3.122630 3.841303 -4.625692 -8.104985 3.820639 1.481120 13.562921 -5.624263 -9.050802 -3.719249 -0.290026 -0.400065 0.000000 0.000000 0.000000 -0.471611 28.580346 1.030529 -47.438671 13.461990 -14.564581 -4.644113 -19.873142 0.001664 5.498854 1.862296 0.096640 -0.191810 -0.075426 -0.000000 0.000000 0.000000 0.000000 0.000000 0.000000 0.000000 20.993324 4.304062 -1.361106 76.591174 13.198414 33.189603 1.495281 62.457362 0.017404 2.017687 6.978389 0.131189 0.005937 -0.381703 -0.000000 0.000000 0.000000 0.000000 0.000000 0.000000 0.000000 
-19.067926 16.785943 -0.380616 123.364292 85.529850 136.203076 -7.490067 3.265101 -8.727999 -3.147889 3.729097 -4.575903 -8.075505 3.706863 1.461258 13.480615 -5.634389 -9.037055 -3.737874 -0.290760 -0.399905 0.000000 0.000000 0.000000 -0.771384 28.307288 1.000813 -47.408124 12.376895 -14.284712 -4.654194 -19.805681 0.001078 5.470500 1.946058 0.100138 -0.189972 -0.071973 -0.000000 0.000000 0.000000 0.000000 0.000000 0.000000 0.000000 21.042038 4.141965 -1.357848 76.842217 12.682946 32.474561 1.544476 60.788475 0.016245 1.848536 7.027788 0.120649 0.009417 -0.369497 -0.000000 0.000000 0.000000 0.000000 0.000000 0.000000 0.000000 
